<?xml version="1.0" encoding="UTF-8" standalone="no"?>
<!-- Uploaded to: SVG Repo, www.svgrepo.com, Generator: SVG Repo Mixer Tools -->

<svg
   fill="#000000"
   width="800"
   height="705.89502"
   viewBox="0 0 1920 1694.148"
   version="1.1"
   id="svg1"
   sodipodi:docname="audio.svg"
   inkscape:version="1.4.2 (f4327f4, 2025-05-13)"
   xmlns:inkscape="http://www.inkscape.org/namespaces/inkscape"
   xmlns:sodipodi="http://sodipodi.sourceforge.net/DTD/sodipodi-0.dtd"
   xmlns="http://www.w3.org/2000/svg"
   xmlns:svg="http://www.w3.org/2000/svg">
  <defs
     id="defs1" />
  <sodipodi:namedview
     id="namedview1"
     pagecolor="#ffffff"
     bordercolor="#000000"
     borderopacity="0.25"
     inkscape:showpageshadow="2"
     inkscape:pageopacity="0.0"
     inkscape:pagecheckerboard="0"
     inkscape:deskcolor="#d1d1d1"
     inkscape:zoom="0.97875"
     inkscape:cx="400"
     inkscape:cy="352.49042"
     inkscape:window-width="1031"
     inkscape:window-height="1030"
     inkscape:window-x="2101"
     inkscape:window-y="73"
     inkscape:window-maximized="0"
     inkscape:current-layer="svg1" />
  <path
     d="M 1129.432,0 V 1694.148 H 903.545 L 451.773,1242.375 V 451.773 L 903.545,0 Z m 542.545,248.057 c 160.04,160.04 248.023,372.825 248.023,599.05 0,226.226 -87.983,438.898 -248.023,598.938 l -79.851,-79.85 c 138.694,-138.582 214.93,-323.018 214.93,-519.087 0,-196.183 -76.236,-380.506 -214.93,-519.2 z M 338.83,451.773 v 790.602 H 169.415 C 75.672,1242.375 0,1166.703 0,1072.96 V 621.187 C 0,527.445 75.672,451.773 169.415,451.773 Z m 1093.922,36.085 c 95.776,97.018 148.407,224.644 148.407,359.16 0,134.628 -52.631,262.253 -148.407,359.272 l -80.303,-79.174 c 74.656,-75.897 115.767,-175.4 115.767,-280.099 0,-104.585 -41.111,-204.088 -115.767,-279.986 z"
     fill-rule="evenodd"
     id="path1" />
</svg>
